<mxfile host="app.diagrams.net" agent="Mozilla/5.0 (Windows NT 10.0; Win64; x64) AppleWebKit/537.36 (KHTML, like Gecko) Chrome/127.0.0.0 Safari/537.36 OPR/113.0.0.0" version="24.7.16">
  <diagram name="Page-1" id="b5b7bab2-c9e2-2cf4-8b2a-24fd1a2a6d21">
    <mxGraphModel grid="1" page="1" gridSize="10" guides="1" tooltips="1" connect="1" arrows="1" fold="1" pageScale="1" pageWidth="827" pageHeight="1169" background="none" math="0" shadow="0">
      <root>
        <mxCell id="0" />
        <mxCell id="1" parent="0" />
        <mxCell id="QvnQzLv0lfRMjzgfRZO1-28" value="" style="shape=folder;fontStyle=1;spacingTop=10;tabWidth=240;tabHeight=40;tabPosition=left;html=1;whiteSpace=wrap;" vertex="1" parent="1">
          <mxGeometry x="280" y="40" width="800" height="840" as="geometry" />
        </mxCell>
        <mxCell id="QvnQzLv0lfRMjzgfRZO1-3" value="&lt;font face=&quot;Times New Roman&quot;&gt;&lt;b&gt;Students&lt;/b&gt;&lt;/font&gt;" style="shape=umlActor;verticalLabelPosition=bottom;verticalAlign=top;html=1;outlineConnect=0;" vertex="1" parent="1">
          <mxGeometry x="120" y="460" width="40" height="80" as="geometry" />
        </mxCell>
        <mxCell id="QvnQzLv0lfRMjzgfRZO1-4" value="&lt;font face=&quot;Times New Roman&quot;&gt;&lt;b&gt;SPSO&lt;/b&gt;&lt;/font&gt;" style="shape=umlActor;verticalLabelPosition=bottom;verticalAlign=top;html=1;outlineConnect=0;" vertex="1" parent="1">
          <mxGeometry x="1160" y="430" width="40" height="80" as="geometry" />
        </mxCell>
        <mxCell id="QvnQzLv0lfRMjzgfRZO1-17" value="&lt;font face=&quot;Times New Roman&quot;&gt;&lt;b&gt;BKPay&lt;/b&gt;&lt;/font&gt;" style="shape=umlActor;verticalLabelPosition=bottom;verticalAlign=top;html=1;outlineConnect=0;" vertex="1" parent="1">
          <mxGeometry x="339.99" y="940" width="40" height="80" as="geometry" />
        </mxCell>
        <mxCell id="QvnQzLv0lfRMjzgfRZO1-29" value="&lt;font style=&quot;font-size: 20px;&quot; face=&quot;Times New Roman&quot;&gt;&lt;b&gt;&amp;nbsp;Printing Service Module&lt;/b&gt;&lt;/font&gt;" style="text;html=1;align=center;verticalAlign=middle;resizable=0;points=[];autosize=1;strokeColor=none;fillColor=none;" vertex="1" parent="1">
          <mxGeometry x="280" y="40" width="240" height="40" as="geometry" />
        </mxCell>
        <mxCell id="40P0dSujkCqKHvWfwPEe-24" value="&lt;span style=&quot;font-family: &amp;quot;Times New Roman&amp;quot;;&quot;&gt;&lt;b&gt;Select document &lt;br&gt;(ID: U1)&lt;/b&gt;&lt;/span&gt;" style="ellipse;whiteSpace=wrap;html=1;" vertex="1" parent="1">
          <mxGeometry x="300" y="120" width="120" height="70" as="geometry" />
        </mxCell>
        <mxCell id="40P0dSujkCqKHvWfwPEe-29" style="edgeStyle=orthogonalEdgeStyle;rounded=0;orthogonalLoop=1;jettySize=auto;html=1;exitX=0.5;exitY=1;exitDx=0;exitDy=0;exitPerimeter=0;" edge="1" parent="1" source="QvnQzLv0lfRMjzgfRZO1-28" target="QvnQzLv0lfRMjzgfRZO1-28">
          <mxGeometry relative="1" as="geometry" />
        </mxCell>
        <mxCell id="nmEAqZRbvcqtcfPlvOjc-2" value="&lt;span style=&quot;font-family: &amp;quot;Times New Roman&amp;quot;;&quot;&gt;Check document types&lt;/span&gt;" style="ellipse;whiteSpace=wrap;html=1;" vertex="1" parent="1">
          <mxGeometry x="580" y="90" width="110" height="60" as="geometry" />
        </mxCell>
        <mxCell id="nmEAqZRbvcqtcfPlvOjc-3" value="&lt;span style=&quot;font-family: &amp;quot;Times New Roman&amp;quot;;&quot;&gt;Upload documents&lt;/span&gt;" style="ellipse;whiteSpace=wrap;html=1;" vertex="1" parent="1">
          <mxGeometry x="580" y="170" width="110" height="60" as="geometry" />
        </mxCell>
        <mxCell id="nmEAqZRbvcqtcfPlvOjc-10" value="&lt;span style=&quot;font-family: &amp;quot;Times New Roman&amp;quot;;&quot;&gt;&lt;b&gt;Select printer &lt;br&gt;(ID: U2)&lt;/b&gt;&lt;/span&gt;" style="ellipse;whiteSpace=wrap;html=1;" vertex="1" parent="1">
          <mxGeometry x="580" y="250" width="120" height="70" as="geometry" />
        </mxCell>
        <mxCell id="nmEAqZRbvcqtcfPlvOjc-11" value="&lt;span style=&quot;font-family: &amp;quot;Times New Roman&amp;quot;;&quot;&gt;Check printer status&lt;/span&gt;" style="ellipse;whiteSpace=wrap;html=1;" vertex="1" parent="1">
          <mxGeometry x="800" y="210" width="113" height="60" as="geometry" />
        </mxCell>
        <mxCell id="nmEAqZRbvcqtcfPlvOjc-12" value="&lt;span style=&quot;font-family: &amp;quot;Times New Roman&amp;quot;;&quot;&gt;Choose printer&lt;/span&gt;" style="ellipse;whiteSpace=wrap;html=1;" vertex="1" parent="1">
          <mxGeometry x="800" y="310" width="115" height="60" as="geometry" />
        </mxCell>
        <mxCell id="nmEAqZRbvcqtcfPlvOjc-21" value="&lt;span style=&quot;font-family: &amp;quot;Times New Roman&amp;quot;;&quot;&gt;&lt;b&gt;Set up printing properties (ID: U3)&lt;/b&gt;&lt;/span&gt;" style="ellipse;whiteSpace=wrap;html=1;" vertex="1" parent="1">
          <mxGeometry x="580" y="340" width="120" height="70" as="geometry" />
        </mxCell>
        <mxCell id="nmEAqZRbvcqtcfPlvOjc-22" value="&lt;span style=&quot;font-family: &amp;quot;Times New Roman&amp;quot;;&quot;&gt;&lt;b&gt;Print documents&lt;/b&gt;&lt;/span&gt;" style="ellipse;whiteSpace=wrap;html=1;" vertex="1" parent="1">
          <mxGeometry x="300" y="290" width="120" height="60" as="geometry" />
        </mxCell>
        <mxCell id="nmEAqZRbvcqtcfPlvOjc-23" value="&lt;span style=&quot;font-family: &amp;quot;Times New Roman&amp;quot;;&quot;&gt;&lt;b&gt;View printing &lt;br&gt;limit pages&lt;/b&gt;&lt;br&gt;&lt;/span&gt;" style="ellipse;whiteSpace=wrap;html=1;" vertex="1" parent="1">
          <mxGeometry x="583.5" y="510" width="123" height="60" as="geometry" />
        </mxCell>
        <mxCell id="nmEAqZRbvcqtcfPlvOjc-24" value="&lt;span style=&quot;font-family: &amp;quot;Times New Roman&amp;quot;;&quot;&gt;Modify permitted&lt;br&gt;file types&lt;/span&gt;" style="ellipse;whiteSpace=wrap;html=1;" vertex="1" parent="1">
          <mxGeometry x="586.5" y="590" width="120" height="70" as="geometry" />
        </mxCell>
        <mxCell id="nmEAqZRbvcqtcfPlvOjc-25" value="&lt;span style=&quot;font-family: &amp;quot;Times New Roman&amp;quot;;&quot;&gt;&lt;b&gt;Configure page management (ID: U8)&lt;/b&gt;&lt;/span&gt;" style="ellipse;whiteSpace=wrap;html=1;" vertex="1" parent="1">
          <mxGeometry x="580.88" y="710" width="133.5" height="70" as="geometry" />
        </mxCell>
        <mxCell id="nmEAqZRbvcqtcfPlvOjc-27" value="&lt;span style=&quot;font-family: &amp;quot;Times New Roman&amp;quot;;&quot;&gt;Set default &lt;br&gt;pages count date&lt;/span&gt;" style="ellipse;whiteSpace=wrap;html=1;" vertex="1" parent="1">
          <mxGeometry x="510" y="820" width="110" height="50" as="geometry" />
        </mxCell>
        <mxCell id="nmEAqZRbvcqtcfPlvOjc-28" value="&lt;span style=&quot;font-family: &amp;quot;Times New Roman&amp;quot;;&quot;&gt;&lt;b&gt;Check available pages (ID: U5)&lt;/b&gt;&lt;/span&gt;" style="ellipse;whiteSpace=wrap;html=1;" vertex="1" parent="1">
          <mxGeometry x="440" y="510" width="120" height="70" as="geometry" />
        </mxCell>
        <mxCell id="nmEAqZRbvcqtcfPlvOjc-29" value="&lt;span style=&quot;font-family: &amp;quot;Times New Roman&amp;quot;;&quot;&gt;&lt;b&gt;Configure printer setting (ID: U9)&lt;/b&gt;&lt;/span&gt;" style="ellipse;whiteSpace=wrap;html=1;" vertex="1" parent="1">
          <mxGeometry x="890" y="660" width="120" height="70" as="geometry" />
        </mxCell>
        <mxCell id="nmEAqZRbvcqtcfPlvOjc-31" value="&lt;span style=&quot;font-family: &amp;quot;Times New Roman&amp;quot;;&quot;&gt;&lt;b&gt;Purchase additional pages (ID: U6)&lt;/b&gt;&lt;/span&gt;" style="ellipse;whiteSpace=wrap;html=1;" vertex="1" parent="1">
          <mxGeometry x="301.87" y="650" width="116.25" height="60" as="geometry" />
        </mxCell>
        <mxCell id="nmEAqZRbvcqtcfPlvOjc-32" value="&lt;span style=&quot;font-family: &amp;quot;Times New Roman&amp;quot;;&quot;&gt;Confirm and purchase&lt;/span&gt;" style="ellipse;whiteSpace=wrap;html=1;" vertex="1" parent="1">
          <mxGeometry x="301.86" y="800" width="116.26" height="60" as="geometry" />
        </mxCell>
        <mxCell id="nmEAqZRbvcqtcfPlvOjc-33" value="&lt;span style=&quot;font-family: &amp;quot;Times New Roman&amp;quot;;&quot;&gt;&lt;b&gt;Update information&lt;/b&gt;&lt;/span&gt;&lt;div&gt;&lt;b&gt;&lt;span style=&quot;font-family: &amp;quot;Times New Roman&amp;quot;;&quot;&gt;and&amp;nbsp;&lt;/span&gt;&lt;span style=&quot;font-family: &amp;quot;Times New Roman&amp;quot;; background-color: initial;&quot;&gt;Confirm&lt;/span&gt;&lt;span style=&quot;font-family: &amp;quot;Times New Roman&amp;quot;; background-color: initial;&quot;&gt;&amp;nbsp;&lt;/span&gt;&lt;span style=&quot;font-family: &amp;quot;Times New Roman&amp;quot;; background-color: initial;&quot;&gt;(ID: U7)&lt;/span&gt;&lt;/b&gt;&lt;/div&gt;" style="ellipse;whiteSpace=wrap;html=1;" vertex="1" parent="1">
          <mxGeometry x="295" y="512.5" width="130" height="67.5" as="geometry" />
        </mxCell>
        <mxCell id="nmEAqZRbvcqtcfPlvOjc-34" value="&lt;span style=&quot;font-family: &amp;quot;Times New Roman&amp;quot;;&quot;&gt;Enable / Disable&amp;nbsp;&lt;/span&gt;" style="ellipse;whiteSpace=wrap;html=1;" vertex="1" parent="1">
          <mxGeometry x="970" y="810" width="100" height="40" as="geometry" />
        </mxCell>
        <mxCell id="VgkW7sJpxe0fCFsjcRa9-1" value="&lt;font face=&quot;Times New Roman&quot;&gt;&lt;b&gt;Log printing actions&lt;br&gt;(ID: U4)&lt;/b&gt;&lt;/font&gt;" style="ellipse;whiteSpace=wrap;html=1;" vertex="1" parent="1">
          <mxGeometry x="585.25" y="430" width="124.75" height="60" as="geometry" />
        </mxCell>
        <mxCell id="VgkW7sJpxe0fCFsjcRa9-2" value="" style="html=1;labelBackgroundColor=#ffffff;startArrow=none;startFill=0;startSize=6;endArrow=classic;endFill=1;endSize=6;jettySize=auto;orthogonalLoop=1;strokeWidth=1;dashed=1;fontSize=14;rounded=0;exitX=1;exitY=0.5;exitDx=0;exitDy=0;entryX=0;entryY=0.5;entryDx=0;entryDy=0;" edge="1" parent="1" source="40P0dSujkCqKHvWfwPEe-24" target="nmEAqZRbvcqtcfPlvOjc-2">
          <mxGeometry width="60" height="60" relative="1" as="geometry">
            <mxPoint x="400" y="370" as="sourcePoint" />
            <mxPoint x="460" y="310" as="targetPoint" />
          </mxGeometry>
        </mxCell>
        <mxCell id="VgkW7sJpxe0fCFsjcRa9-4" value="&lt;font face=&quot;Times New Roman&quot;&gt;&amp;lt;&amp;lt;include&amp;gt;&amp;gt;&lt;/font&gt;" style="edgeLabel;html=1;align=center;verticalAlign=middle;resizable=0;points=[];rotation=-15;" connectable="0" vertex="1" parent="VgkW7sJpxe0fCFsjcRa9-2">
          <mxGeometry x="0.0028" relative="1" as="geometry">
            <mxPoint x="10" y="-7" as="offset" />
          </mxGeometry>
        </mxCell>
        <mxCell id="VgkW7sJpxe0fCFsjcRa9-5" value="" style="html=1;labelBackgroundColor=#ffffff;startArrow=none;startFill=0;startSize=6;endArrow=classic;endFill=1;endSize=6;jettySize=auto;orthogonalLoop=1;strokeWidth=1;dashed=1;fontSize=14;rounded=0;exitX=1;exitY=0.5;exitDx=0;exitDy=0;entryX=0;entryY=0.5;entryDx=0;entryDy=0;" edge="1" parent="1" source="40P0dSujkCqKHvWfwPEe-24" target="nmEAqZRbvcqtcfPlvOjc-3">
          <mxGeometry width="60" height="60" relative="1" as="geometry">
            <mxPoint x="470" y="215" as="sourcePoint" />
            <mxPoint x="526" y="229" as="targetPoint" />
          </mxGeometry>
        </mxCell>
        <mxCell id="VgkW7sJpxe0fCFsjcRa9-6" value="&lt;font face=&quot;Times New Roman&quot;&gt;&amp;lt;&amp;lt;include&amp;gt;&amp;gt;&lt;/font&gt;" style="edgeLabel;html=1;align=center;verticalAlign=middle;resizable=0;points=[];rotation=15;" connectable="0" vertex="1" parent="VgkW7sJpxe0fCFsjcRa9-5">
          <mxGeometry x="0.0028" relative="1" as="geometry">
            <mxPoint x="-3" y="-2" as="offset" />
          </mxGeometry>
        </mxCell>
        <mxCell id="VgkW7sJpxe0fCFsjcRa9-7" value="" style="html=1;labelBackgroundColor=#ffffff;startArrow=none;startFill=0;startSize=6;endArrow=classic;endFill=1;endSize=6;jettySize=auto;orthogonalLoop=1;strokeWidth=1;dashed=1;fontSize=14;rounded=0;exitX=0.5;exitY=0;exitDx=0;exitDy=0;entryX=0.5;entryY=1;entryDx=0;entryDy=0;" edge="1" parent="1" source="nmEAqZRbvcqtcfPlvOjc-22" target="40P0dSujkCqKHvWfwPEe-24">
          <mxGeometry width="60" height="60" relative="1" as="geometry">
            <mxPoint x="360" y="325" as="sourcePoint" />
            <mxPoint x="480" y="280" as="targetPoint" />
          </mxGeometry>
        </mxCell>
        <mxCell id="VgkW7sJpxe0fCFsjcRa9-8" value="&lt;font face=&quot;Times New Roman&quot;&gt;&amp;lt;&amp;lt;include&amp;gt;&amp;gt;&lt;/font&gt;" style="edgeLabel;html=1;align=center;verticalAlign=middle;resizable=0;points=[];" connectable="0" vertex="1" parent="VgkW7sJpxe0fCFsjcRa9-7">
          <mxGeometry x="0.0028" relative="1" as="geometry">
            <mxPoint y="-5" as="offset" />
          </mxGeometry>
        </mxCell>
        <mxCell id="VgkW7sJpxe0fCFsjcRa9-9" value="" style="html=1;labelBackgroundColor=#ffffff;startArrow=none;startFill=0;startSize=6;endArrow=classic;endFill=1;endSize=6;jettySize=auto;orthogonalLoop=1;strokeWidth=1;dashed=1;fontSize=14;rounded=0;exitX=0.5;exitY=1;exitDx=0;exitDy=0;entryX=0.5;entryY=0;entryDx=0;entryDy=0;" edge="1" parent="1" source="nmEAqZRbvcqtcfPlvOjc-22" target="nmEAqZRbvcqtcfPlvOjc-33">
          <mxGeometry width="60" height="60" relative="1" as="geometry">
            <mxPoint x="370" y="545" as="sourcePoint" />
            <mxPoint x="490" y="500" as="targetPoint" />
          </mxGeometry>
        </mxCell>
        <mxCell id="VgkW7sJpxe0fCFsjcRa9-10" value="&lt;font face=&quot;Times New Roman&quot;&gt;&amp;lt;&amp;lt;include&amp;gt;&amp;gt;&lt;/font&gt;" style="edgeLabel;html=1;align=center;verticalAlign=middle;resizable=0;points=[];" connectable="0" vertex="1" parent="VgkW7sJpxe0fCFsjcRa9-9">
          <mxGeometry x="0.0028" relative="1" as="geometry">
            <mxPoint x="-26" y="10" as="offset" />
          </mxGeometry>
        </mxCell>
        <mxCell id="VgkW7sJpxe0fCFsjcRa9-11" value="" style="html=1;labelBackgroundColor=#ffffff;startArrow=none;startFill=0;startSize=6;endArrow=classic;endFill=1;endSize=6;jettySize=auto;orthogonalLoop=1;strokeWidth=1;dashed=1;fontSize=14;rounded=0;exitX=1;exitY=0.5;exitDx=0;exitDy=0;entryX=0;entryY=0.5;entryDx=0;entryDy=0;" edge="1" parent="1" source="nmEAqZRbvcqtcfPlvOjc-22" target="nmEAqZRbvcqtcfPlvOjc-10">
          <mxGeometry width="60" height="60" relative="1" as="geometry">
            <mxPoint x="500" y="245" as="sourcePoint" />
            <mxPoint x="620" y="200" as="targetPoint" />
          </mxGeometry>
        </mxCell>
        <mxCell id="VgkW7sJpxe0fCFsjcRa9-12" value="&lt;font face=&quot;Times New Roman&quot;&gt;&amp;lt;&amp;lt;include&amp;gt;&amp;gt;&lt;/font&gt;" style="edgeLabel;html=1;align=center;verticalAlign=middle;resizable=0;points=[];rotation=-15;" connectable="0" vertex="1" parent="VgkW7sJpxe0fCFsjcRa9-11">
          <mxGeometry x="0.0028" relative="1" as="geometry">
            <mxPoint y="1" as="offset" />
          </mxGeometry>
        </mxCell>
        <mxCell id="VgkW7sJpxe0fCFsjcRa9-13" value="" style="html=1;labelBackgroundColor=#ffffff;startArrow=none;startFill=0;startSize=6;endArrow=classic;endFill=1;endSize=6;jettySize=auto;orthogonalLoop=1;strokeWidth=1;dashed=1;fontSize=14;rounded=0;exitX=1;exitY=0.5;exitDx=0;exitDy=0;entryX=0;entryY=0.5;entryDx=0;entryDy=0;" edge="1" parent="1" source="nmEAqZRbvcqtcfPlvOjc-22" target="nmEAqZRbvcqtcfPlvOjc-21">
          <mxGeometry width="60" height="60" relative="1" as="geometry">
            <mxPoint x="510" y="255" as="sourcePoint" />
            <mxPoint x="630" y="210" as="targetPoint" />
          </mxGeometry>
        </mxCell>
        <mxCell id="VgkW7sJpxe0fCFsjcRa9-14" value="&lt;font face=&quot;Times New Roman&quot;&gt;&amp;lt;&amp;lt;include&amp;gt;&amp;gt;&lt;/font&gt;" style="edgeLabel;html=1;align=center;verticalAlign=middle;resizable=0;points=[];rotation=20;" connectable="0" vertex="1" parent="VgkW7sJpxe0fCFsjcRa9-13">
          <mxGeometry x="0.0028" relative="1" as="geometry">
            <mxPoint y="-5" as="offset" />
          </mxGeometry>
        </mxCell>
        <mxCell id="VgkW7sJpxe0fCFsjcRa9-15" value="" style="html=1;labelBackgroundColor=#ffffff;startArrow=none;startFill=0;startSize=6;endArrow=classic;endFill=1;endSize=6;jettySize=auto;orthogonalLoop=1;strokeWidth=1;dashed=1;fontSize=14;rounded=0;exitX=0;exitY=0;exitDx=0;exitDy=0;entryX=1;entryY=1;entryDx=0;entryDy=0;" edge="1" parent="1" source="nmEAqZRbvcqtcfPlvOjc-23" target="nmEAqZRbvcqtcfPlvOjc-22">
          <mxGeometry width="60" height="60" relative="1" as="geometry">
            <mxPoint x="520" y="265" as="sourcePoint" />
            <mxPoint x="640" y="220" as="targetPoint" />
          </mxGeometry>
        </mxCell>
        <mxCell id="VgkW7sJpxe0fCFsjcRa9-16" value="&lt;font face=&quot;Times New Roman&quot;&gt;&amp;lt;&amp;lt;extend&amp;gt;&amp;gt;&lt;/font&gt;" style="edgeLabel;html=1;align=center;verticalAlign=middle;resizable=0;points=[];rotation=45;" connectable="0" vertex="1" parent="VgkW7sJpxe0fCFsjcRa9-15">
          <mxGeometry x="0.0028" relative="1" as="geometry">
            <mxPoint x="14" y="10" as="offset" />
          </mxGeometry>
        </mxCell>
        <mxCell id="VgkW7sJpxe0fCFsjcRa9-23" value="" style="html=1;labelBackgroundColor=#ffffff;startArrow=none;startFill=0;startSize=6;endArrow=classic;endFill=1;endSize=6;jettySize=auto;orthogonalLoop=1;strokeWidth=1;dashed=1;fontSize=14;rounded=0;entryX=0.5;entryY=0;entryDx=0;entryDy=0;exitX=0.5;exitY=1;exitDx=0;exitDy=0;" edge="1" parent="1" source="nmEAqZRbvcqtcfPlvOjc-22" target="nmEAqZRbvcqtcfPlvOjc-28">
          <mxGeometry width="60" height="60" relative="1" as="geometry">
            <mxPoint x="360" y="360" as="sourcePoint" />
            <mxPoint x="680" y="260" as="targetPoint" />
          </mxGeometry>
        </mxCell>
        <mxCell id="VgkW7sJpxe0fCFsjcRa9-24" value="&lt;font face=&quot;Times New Roman&quot;&gt;&amp;lt;&amp;lt;include&amp;gt;&amp;gt;&lt;/font&gt;" style="edgeLabel;html=1;align=center;verticalAlign=middle;resizable=0;points=[];rotation=0;" connectable="0" vertex="1" parent="VgkW7sJpxe0fCFsjcRa9-23">
          <mxGeometry x="0.0028" relative="1" as="geometry">
            <mxPoint y="10" as="offset" />
          </mxGeometry>
        </mxCell>
        <mxCell id="VgkW7sJpxe0fCFsjcRa9-25" value="" style="html=1;labelBackgroundColor=#ffffff;startArrow=none;startFill=0;startSize=6;endArrow=classic;endFill=1;endSize=6;jettySize=auto;orthogonalLoop=1;strokeWidth=1;dashed=1;fontSize=14;rounded=0;exitX=1;exitY=0.5;exitDx=0;exitDy=0;entryX=0;entryY=0.5;entryDx=0;entryDy=0;" edge="1" parent="1" source="nmEAqZRbvcqtcfPlvOjc-10" target="nmEAqZRbvcqtcfPlvOjc-11">
          <mxGeometry width="60" height="60" relative="1" as="geometry">
            <mxPoint x="660" y="262.5" as="sourcePoint" />
            <mxPoint x="780" y="217.5" as="targetPoint" />
          </mxGeometry>
        </mxCell>
        <mxCell id="VgkW7sJpxe0fCFsjcRa9-26" value="&lt;font face=&quot;Times New Roman&quot;&gt;&amp;lt;&amp;lt;include&amp;gt;&amp;gt;&lt;/font&gt;" style="edgeLabel;html=1;align=center;verticalAlign=middle;resizable=0;points=[];rotation=-22;" connectable="0" vertex="1" parent="VgkW7sJpxe0fCFsjcRa9-25">
          <mxGeometry x="0.0028" relative="1" as="geometry">
            <mxPoint x="-3" y="1" as="offset" />
          </mxGeometry>
        </mxCell>
        <mxCell id="VgkW7sJpxe0fCFsjcRa9-27" value="" style="html=1;labelBackgroundColor=#ffffff;startArrow=none;startFill=0;startSize=6;endArrow=classic;endFill=1;endSize=6;jettySize=auto;orthogonalLoop=1;strokeWidth=1;dashed=1;fontSize=14;rounded=0;exitX=1;exitY=0.5;exitDx=0;exitDy=0;entryX=0;entryY=0.5;entryDx=0;entryDy=0;" edge="1" parent="1" source="nmEAqZRbvcqtcfPlvOjc-10" target="nmEAqZRbvcqtcfPlvOjc-12">
          <mxGeometry width="60" height="60" relative="1" as="geometry">
            <mxPoint x="580" y="325" as="sourcePoint" />
            <mxPoint x="700" y="280" as="targetPoint" />
          </mxGeometry>
        </mxCell>
        <mxCell id="VgkW7sJpxe0fCFsjcRa9-28" value="&lt;font face=&quot;Times New Roman&quot;&gt;&amp;lt;&amp;lt;include&amp;gt;&amp;gt;&lt;/font&gt;" style="edgeLabel;html=1;align=center;verticalAlign=middle;resizable=0;points=[];rotation=30;" connectable="0" vertex="1" parent="VgkW7sJpxe0fCFsjcRa9-27">
          <mxGeometry x="0.0028" relative="1" as="geometry">
            <mxPoint y="1" as="offset" />
          </mxGeometry>
        </mxCell>
        <mxCell id="VgkW7sJpxe0fCFsjcRa9-29" value="" style="html=1;labelBackgroundColor=#ffffff;startArrow=none;startFill=0;startSize=6;endArrow=classic;endFill=1;endSize=6;jettySize=auto;orthogonalLoop=1;strokeWidth=1;dashed=1;fontSize=14;rounded=0;exitX=0.5;exitY=1;exitDx=0;exitDy=0;entryX=0.5;entryY=0;entryDx=0;entryDy=0;" edge="1" parent="1" source="nmEAqZRbvcqtcfPlvOjc-24" target="nmEAqZRbvcqtcfPlvOjc-25">
          <mxGeometry width="60" height="60" relative="1" as="geometry">
            <mxPoint x="780" y="262.5" as="sourcePoint" />
            <mxPoint x="900" y="217.5" as="targetPoint" />
          </mxGeometry>
        </mxCell>
        <mxCell id="VgkW7sJpxe0fCFsjcRa9-30" value="&lt;font face=&quot;Times New Roman&quot;&gt;&amp;lt;&amp;lt;extend&amp;gt;&amp;gt;&lt;/font&gt;" style="edgeLabel;html=1;align=center;verticalAlign=middle;resizable=0;points=[];" connectable="0" vertex="1" parent="VgkW7sJpxe0fCFsjcRa9-29">
          <mxGeometry x="0.0028" relative="1" as="geometry">
            <mxPoint y="-5" as="offset" />
          </mxGeometry>
        </mxCell>
        <mxCell id="VgkW7sJpxe0fCFsjcRa9-31" value="" style="html=1;labelBackgroundColor=#ffffff;startArrow=none;startFill=0;startSize=6;endArrow=classic;endFill=1;endSize=6;jettySize=auto;orthogonalLoop=1;strokeWidth=1;dashed=1;fontSize=14;rounded=0;exitX=0.5;exitY=0;exitDx=0;exitDy=0;entryX=0.5;entryY=1;entryDx=0;entryDy=0;" edge="1" parent="1" source="nmEAqZRbvcqtcfPlvOjc-26" target="nmEAqZRbvcqtcfPlvOjc-25">
          <mxGeometry width="60" height="60" relative="1" as="geometry">
            <mxPoint x="600" y="345" as="sourcePoint" />
            <mxPoint x="720" y="300" as="targetPoint" />
          </mxGeometry>
        </mxCell>
        <mxCell id="VgkW7sJpxe0fCFsjcRa9-32" value="&lt;font face=&quot;Times New Roman&quot;&gt;&amp;lt;&amp;lt;extend&amp;gt;&amp;gt;&lt;/font&gt;" style="edgeLabel;html=1;align=center;verticalAlign=middle;resizable=0;points=[];" connectable="0" vertex="1" parent="VgkW7sJpxe0fCFsjcRa9-31">
          <mxGeometry x="0.0028" relative="1" as="geometry">
            <mxPoint x="8" y="1" as="offset" />
          </mxGeometry>
        </mxCell>
        <mxCell id="VgkW7sJpxe0fCFsjcRa9-33" value="" style="html=1;labelBackgroundColor=#ffffff;startArrow=none;startFill=0;startSize=6;endArrow=classic;endFill=1;endSize=6;jettySize=auto;orthogonalLoop=1;strokeWidth=1;dashed=1;fontSize=14;rounded=0;exitX=0.5;exitY=0;exitDx=0;exitDy=0;entryX=0.5;entryY=1;entryDx=0;entryDy=0;" edge="1" parent="1" source="nmEAqZRbvcqtcfPlvOjc-27" target="nmEAqZRbvcqtcfPlvOjc-25">
          <mxGeometry width="60" height="60" relative="1" as="geometry">
            <mxPoint x="850" y="470" as="sourcePoint" />
            <mxPoint x="860" y="540" as="targetPoint" />
          </mxGeometry>
        </mxCell>
        <mxCell id="VgkW7sJpxe0fCFsjcRa9-34" value="&lt;font face=&quot;Times New Roman&quot;&gt;&amp;lt;&amp;lt;extend&amp;gt;&amp;gt;&lt;/font&gt;" style="edgeLabel;html=1;align=center;verticalAlign=middle;resizable=0;points=[];" connectable="0" vertex="1" parent="VgkW7sJpxe0fCFsjcRa9-33">
          <mxGeometry x="0.0028" relative="1" as="geometry">
            <mxPoint x="-5" as="offset" />
          </mxGeometry>
        </mxCell>
        <mxCell id="VgkW7sJpxe0fCFsjcRa9-35" value="" style="html=1;labelBackgroundColor=#ffffff;startArrow=none;startFill=0;startSize=6;endArrow=classic;endFill=1;endSize=6;jettySize=auto;orthogonalLoop=1;strokeWidth=1;dashed=1;fontSize=14;rounded=0;exitX=0.5;exitY=1;exitDx=0;exitDy=0;entryX=0.5;entryY=0;entryDx=0;entryDy=0;" edge="1" parent="1" source="nmEAqZRbvcqtcfPlvOjc-31" target="nmEAqZRbvcqtcfPlvOjc-32">
          <mxGeometry width="60" height="60" relative="1" as="geometry">
            <mxPoint x="940" y="360" as="sourcePoint" />
            <mxPoint x="950" y="430" as="targetPoint" />
          </mxGeometry>
        </mxCell>
        <mxCell id="VgkW7sJpxe0fCFsjcRa9-36" value="&lt;font face=&quot;Times New Roman&quot;&gt;&amp;lt;&amp;lt;include&amp;gt;&amp;gt;&lt;/font&gt;" style="edgeLabel;html=1;align=center;verticalAlign=middle;resizable=0;points=[];" connectable="0" vertex="1" parent="VgkW7sJpxe0fCFsjcRa9-35">
          <mxGeometry x="0.0028" relative="1" as="geometry">
            <mxPoint x="-1" y="-3" as="offset" />
          </mxGeometry>
        </mxCell>
        <mxCell id="VgkW7sJpxe0fCFsjcRa9-37" value="" style="html=1;labelBackgroundColor=#ffffff;startArrow=none;startFill=0;startSize=6;endArrow=classic;endFill=1;endSize=6;jettySize=auto;orthogonalLoop=1;strokeWidth=1;dashed=1;fontSize=14;rounded=0;exitX=1;exitY=0;exitDx=0;exitDy=0;entryX=0.5;entryY=1;entryDx=0;entryDy=0;" edge="1" parent="1" source="nmEAqZRbvcqtcfPlvOjc-30" target="nmEAqZRbvcqtcfPlvOjc-29">
          <mxGeometry width="60" height="60" relative="1" as="geometry">
            <mxPoint x="810" y="710" as="sourcePoint" />
            <mxPoint x="720" y="740" as="targetPoint" />
          </mxGeometry>
        </mxCell>
        <mxCell id="VgkW7sJpxe0fCFsjcRa9-38" value="&lt;font face=&quot;Times New Roman&quot;&gt;&amp;lt;&amp;lt;extend&amp;gt;&amp;gt;&lt;/font&gt;" style="edgeLabel;html=1;align=center;verticalAlign=middle;resizable=0;points=[];" connectable="0" vertex="1" parent="VgkW7sJpxe0fCFsjcRa9-37">
          <mxGeometry x="0.0028" relative="1" as="geometry">
            <mxPoint x="-20" y="2" as="offset" />
          </mxGeometry>
        </mxCell>
        <mxCell id="VgkW7sJpxe0fCFsjcRa9-39" value="" style="html=1;labelBackgroundColor=#ffffff;startArrow=none;startFill=0;startSize=6;endArrow=classic;endFill=1;endSize=6;jettySize=auto;orthogonalLoop=1;strokeWidth=1;dashed=1;fontSize=14;rounded=0;exitX=0;exitY=0;exitDx=0;exitDy=0;entryX=0.5;entryY=1;entryDx=0;entryDy=0;" edge="1" parent="1" source="nmEAqZRbvcqtcfPlvOjc-34" target="nmEAqZRbvcqtcfPlvOjc-29">
          <mxGeometry width="60" height="60" relative="1" as="geometry">
            <mxPoint x="960" y="380" as="sourcePoint" />
            <mxPoint x="970" y="450" as="targetPoint" />
          </mxGeometry>
        </mxCell>
        <mxCell id="VgkW7sJpxe0fCFsjcRa9-40" value="&lt;font face=&quot;Times New Roman&quot;&gt;&amp;lt;&amp;lt;extend&amp;gt;&amp;gt;&lt;/font&gt;" style="edgeLabel;html=1;align=center;verticalAlign=middle;resizable=0;points=[];" connectable="0" vertex="1" parent="VgkW7sJpxe0fCFsjcRa9-39">
          <mxGeometry x="0.0028" relative="1" as="geometry">
            <mxPoint x="23" y="2" as="offset" />
          </mxGeometry>
        </mxCell>
        <mxCell id="VgkW7sJpxe0fCFsjcRa9-41" value="" style="html=1;labelBackgroundColor=#ffffff;startArrow=none;startFill=0;startSize=6;endArrow=classic;endFill=1;endSize=6;jettySize=auto;orthogonalLoop=1;strokeWidth=1;dashed=1;fontSize=14;rounded=0;exitX=0;exitY=0;exitDx=0;exitDy=0;entryX=1;entryY=1;entryDx=0;entryDy=0;" edge="1" parent="1" source="VgkW7sJpxe0fCFsjcRa9-1" target="nmEAqZRbvcqtcfPlvOjc-22">
          <mxGeometry width="60" height="60" relative="1" as="geometry">
            <mxPoint x="350" y="610" as="sourcePoint" />
            <mxPoint x="360" y="680" as="targetPoint" />
          </mxGeometry>
        </mxCell>
        <mxCell id="VgkW7sJpxe0fCFsjcRa9-42" value="&lt;font face=&quot;Times New Roman&quot;&gt;&amp;lt;&amp;lt;extend&amp;gt;&amp;gt;&lt;/font&gt;" style="edgeLabel;html=1;align=center;verticalAlign=middle;resizable=0;points=[];rotation=30;" connectable="0" vertex="1" parent="VgkW7sJpxe0fCFsjcRa9-41">
          <mxGeometry x="0.0028" relative="1" as="geometry">
            <mxPoint x="27" y="11" as="offset" />
          </mxGeometry>
        </mxCell>
        <mxCell id="nmEAqZRbvcqtcfPlvOjc-30" value="&lt;span style=&quot;font-family: &amp;quot;Times New Roman&amp;quot;;&quot;&gt;Add&lt;/span&gt;" style="ellipse;whiteSpace=wrap;html=1;" vertex="1" parent="1">
          <mxGeometry x="840" y="810" width="93" height="40" as="geometry" />
        </mxCell>
        <mxCell id="nmEAqZRbvcqtcfPlvOjc-26" value="&lt;span style=&quot;font-family: &amp;quot;Times New Roman&amp;quot;;&quot;&gt;Modify default page limit&lt;/span&gt;" style="ellipse;whiteSpace=wrap;html=1;" vertex="1" parent="1">
          <mxGeometry x="680" y="820" width="110" height="50" as="geometry" />
        </mxCell>
        <mxCell id="VgkW7sJpxe0fCFsjcRa9-44" value="" style="endArrow=none;html=1;rounded=0;entryX=1;entryY=0.5;entryDx=0;entryDy=0;" edge="1" parent="1" target="nmEAqZRbvcqtcfPlvOjc-23">
          <mxGeometry width="50" height="50" relative="1" as="geometry">
            <mxPoint x="1150" y="480" as="sourcePoint" />
            <mxPoint x="100" y="640" as="targetPoint" />
          </mxGeometry>
        </mxCell>
        <mxCell id="VgkW7sJpxe0fCFsjcRa9-45" value="" style="endArrow=none;html=1;rounded=0;entryX=1;entryY=0.5;entryDx=0;entryDy=0;" edge="1" parent="1" target="VgkW7sJpxe0fCFsjcRa9-1">
          <mxGeometry width="50" height="50" relative="1" as="geometry">
            <mxPoint x="1150" y="480" as="sourcePoint" />
            <mxPoint x="710" y="545" as="targetPoint" />
          </mxGeometry>
        </mxCell>
        <mxCell id="VgkW7sJpxe0fCFsjcRa9-46" value="" style="endArrow=none;html=1;rounded=0;exitX=1;exitY=0;exitDx=0;exitDy=0;" edge="1" parent="1" source="nmEAqZRbvcqtcfPlvOjc-25">
          <mxGeometry width="50" height="50" relative="1" as="geometry">
            <mxPoint x="1100" y="570" as="sourcePoint" />
            <mxPoint x="1150" y="480" as="targetPoint" />
          </mxGeometry>
        </mxCell>
        <mxCell id="VgkW7sJpxe0fCFsjcRa9-47" value="" style="endArrow=none;html=1;rounded=0;exitX=1;exitY=0;exitDx=0;exitDy=0;" edge="1" parent="1" source="nmEAqZRbvcqtcfPlvOjc-29">
          <mxGeometry width="50" height="50" relative="1" as="geometry">
            <mxPoint x="1100" y="560" as="sourcePoint" />
            <mxPoint x="1150" y="480" as="targetPoint" />
          </mxGeometry>
        </mxCell>
        <mxCell id="VgkW7sJpxe0fCFsjcRa9-48" value="" style="endArrow=none;html=1;rounded=0;" edge="1" parent="1">
          <mxGeometry width="50" height="50" relative="1" as="geometry">
            <mxPoint x="170" y="500" as="sourcePoint" />
            <mxPoint x="240" y="320" as="targetPoint" />
          </mxGeometry>
        </mxCell>
        <mxCell id="VgkW7sJpxe0fCFsjcRa9-49" value="" style="endArrow=none;html=1;rounded=0;entryX=0;entryY=0.5;entryDx=0;entryDy=0;" edge="1" parent="1" target="nmEAqZRbvcqtcfPlvOjc-22">
          <mxGeometry width="50" height="50" relative="1" as="geometry">
            <mxPoint x="240" y="320" as="sourcePoint" />
            <mxPoint x="170" y="300" as="targetPoint" />
          </mxGeometry>
        </mxCell>
        <mxCell id="VgkW7sJpxe0fCFsjcRa9-50" value="" style="endArrow=none;html=1;rounded=0;" edge="1" parent="1">
          <mxGeometry width="50" height="50" relative="1" as="geometry">
            <mxPoint x="170" y="500" as="sourcePoint" />
            <mxPoint x="240" y="680" as="targetPoint" />
          </mxGeometry>
        </mxCell>
        <mxCell id="VgkW7sJpxe0fCFsjcRa9-51" value="" style="endArrow=none;html=1;rounded=0;exitX=0;exitY=0.5;exitDx=0;exitDy=0;" edge="1" parent="1" source="nmEAqZRbvcqtcfPlvOjc-31">
          <mxGeometry width="50" height="50" relative="1" as="geometry">
            <mxPoint x="100" y="710" as="sourcePoint" />
            <mxPoint x="240" y="680" as="targetPoint" />
          </mxGeometry>
        </mxCell>
        <mxCell id="VgkW7sJpxe0fCFsjcRa9-52" value="" style="endArrow=none;html=1;rounded=0;entryX=0.5;entryY=1;entryDx=0;entryDy=0;" edge="1" parent="1" target="nmEAqZRbvcqtcfPlvOjc-32">
          <mxGeometry width="50" height="50" relative="1" as="geometry">
            <mxPoint x="360" y="920" as="sourcePoint" />
            <mxPoint x="400" y="890" as="targetPoint" />
          </mxGeometry>
        </mxCell>
      </root>
    </mxGraphModel>
  </diagram>
</mxfile>
